<mxfile host="Electron" modified="2023-08-04T15:44:45.183Z" agent="Mozilla/5.0 (Windows NT 10.0; Win64; x64) AppleWebKit/537.36 (KHTML, like Gecko) draw.io/21.6.1 Chrome/112.0.5615.204 Electron/24.6.1 Safari/537.36" etag="SsvhWyd9YaCgi-yD3wk0" version="21.6.1" type="device">
  <diagram name="Page-1" id="FqibmQxH8pM4NbbEJEyq">
    <mxGraphModel dx="945" dy="654" grid="1" gridSize="10" guides="1" tooltips="1" connect="1" arrows="1" fold="1" page="1" pageScale="1" pageWidth="850" pageHeight="1100" background="#ffffff" math="0" shadow="0">
      <root>
        <mxCell id="0" />
        <mxCell id="1" parent="0" />
        <mxCell id="pIb1P90zdNiWHYiYZIQa-1" value="NMOS Controller" style="rounded=0;whiteSpace=wrap;html=1;" parent="1" vertex="1">
          <mxGeometry x="40" y="120" width="760" height="90" as="geometry" />
        </mxCell>
        <mxCell id="pIb1P90zdNiWHYiYZIQa-2" value="NDI Discovery" style="rounded=0;whiteSpace=wrap;html=1;" parent="1" vertex="1">
          <mxGeometry x="690" y="135" width="100" height="60" as="geometry" />
        </mxCell>
        <mxCell id="pIb1P90zdNiWHYiYZIQa-3" value="NMOS&lt;br&gt;Registry" style="rounded=0;whiteSpace=wrap;html=1;" parent="1" vertex="1">
          <mxGeometry x="30" y="280" width="90" height="240" as="geometry" />
        </mxCell>
        <mxCell id="pIb1P90zdNiWHYiYZIQa-4" value="" style="endArrow=classic;startArrow=none;html=1;rounded=0;startFill=0;dashed=1;dashPattern=1 2;" parent="1" edge="1">
          <mxGeometry width="50" height="50" relative="1" as="geometry">
            <mxPoint x="129" y="584.83" as="sourcePoint" />
            <mxPoint x="219" y="584.83" as="targetPoint" />
          </mxGeometry>
        </mxCell>
        <mxCell id="pIb1P90zdNiWHYiYZIQa-6" value="" style="endArrow=classic;startArrow=classic;html=1;rounded=0;exitX=0.5;exitY=0;exitDx=0;exitDy=0;entryX=0.049;entryY=1.062;entryDx=0;entryDy=0;entryPerimeter=0;" parent="1" source="pIb1P90zdNiWHYiYZIQa-3" target="pIb1P90zdNiWHYiYZIQa-1" edge="1">
          <mxGeometry width="50" height="50" relative="1" as="geometry">
            <mxPoint x="260" y="260" as="sourcePoint" />
            <mxPoint x="110" y="210" as="targetPoint" />
          </mxGeometry>
        </mxCell>
        <mxCell id="pIb1P90zdNiWHYiYZIQa-24" value="IS-04 Query" style="edgeLabel;html=1;align=center;verticalAlign=middle;resizable=0;points=[];" parent="pIb1P90zdNiWHYiYZIQa-6" vertex="1" connectable="0">
          <mxGeometry x="0.0128" relative="1" as="geometry">
            <mxPoint as="offset" />
          </mxGeometry>
        </mxCell>
        <mxCell id="pIb1P90zdNiWHYiYZIQa-8" value="Native NDI Stream" style="text;strokeColor=none;align=left;fillColor=none;html=1;verticalAlign=middle;whiteSpace=wrap;rounded=0;" parent="1" vertex="1">
          <mxGeometry x="20" y="570" width="130" height="30" as="geometry" />
        </mxCell>
        <mxCell id="pIb1P90zdNiWHYiYZIQa-9" value="Native NDI Device X" style="rounded=0;whiteSpace=wrap;html=1;" parent="1" vertex="1">
          <mxGeometry x="560" y="280" width="100" height="80" as="geometry" />
        </mxCell>
        <mxCell id="pIb1P90zdNiWHYiYZIQa-10" value="Native NDI Device Y" style="rounded=0;whiteSpace=wrap;html=1;" parent="1" vertex="1">
          <mxGeometry x="560" y="440" width="100" height="80" as="geometry" />
        </mxCell>
        <mxCell id="pIb1P90zdNiWHYiYZIQa-11" value="NMOS NDI Device A" style="rounded=0;whiteSpace=wrap;html=1;" parent="1" vertex="1">
          <mxGeometry x="300" y="280" width="100" height="80" as="geometry" />
        </mxCell>
        <mxCell id="pIb1P90zdNiWHYiYZIQa-12" value="NMOS NDI Device B" style="rounded=0;whiteSpace=wrap;html=1;" parent="1" vertex="1">
          <mxGeometry x="300" y="440" width="100" height="80" as="geometry" />
        </mxCell>
        <mxCell id="pIb1P90zdNiWHYiYZIQa-15" value="" style="endArrow=classic;startArrow=classic;html=1;rounded=0;exitX=1;exitY=0;exitDx=0;exitDy=0;entryX=0.75;entryY=1;entryDx=0;entryDy=0;" parent="1" source="pIb1P90zdNiWHYiYZIQa-10" target="pIb1P90zdNiWHYiYZIQa-2" edge="1">
          <mxGeometry width="50" height="50" relative="1" as="geometry">
            <mxPoint x="550" y="260" as="sourcePoint" />
            <mxPoint x="600" y="210" as="targetPoint" />
          </mxGeometry>
        </mxCell>
        <mxCell id="pIb1P90zdNiWHYiYZIQa-16" value="NDI Discovery" style="edgeLabel;html=1;align=center;verticalAlign=middle;resizable=0;points=[];" parent="pIb1P90zdNiWHYiYZIQa-15" vertex="1" connectable="0">
          <mxGeometry x="-0.1653" relative="1" as="geometry">
            <mxPoint as="offset" />
          </mxGeometry>
        </mxCell>
        <mxCell id="pIb1P90zdNiWHYiYZIQa-17" value="" style="endArrow=classic;startArrow=classic;html=1;rounded=0;exitX=1.05;exitY=0.052;exitDx=0;exitDy=0;entryX=0.5;entryY=1;entryDx=0;entryDy=0;exitPerimeter=0;" parent="1" source="pIb1P90zdNiWHYiYZIQa-9" target="pIb1P90zdNiWHYiYZIQa-2" edge="1">
          <mxGeometry width="50" height="50" relative="1" as="geometry">
            <mxPoint x="630" y="360" as="sourcePoint" />
            <mxPoint x="560" y="290" as="targetPoint" />
          </mxGeometry>
        </mxCell>
        <mxCell id="pIb1P90zdNiWHYiYZIQa-18" value="NDI Discovery" style="edgeLabel;html=1;align=center;verticalAlign=middle;resizable=0;points=[];" parent="pIb1P90zdNiWHYiYZIQa-17" vertex="1" connectable="0">
          <mxGeometry x="-0.1653" relative="1" as="geometry">
            <mxPoint as="offset" />
          </mxGeometry>
        </mxCell>
        <mxCell id="pIb1P90zdNiWHYiYZIQa-28" value="" style="endArrow=classic;html=1;rounded=0;entryX=1;entryY=0.5;entryDx=0;entryDy=0;startArrow=none;startFill=0;exitX=-0.016;exitY=0.804;exitDx=0;exitDy=0;exitPerimeter=0;" parent="1" edge="1">
          <mxGeometry width="50" height="50" relative="1" as="geometry">
            <mxPoint x="298" y="339.71" as="sourcePoint" />
            <mxPoint x="120" y="339.71" as="targetPoint" />
          </mxGeometry>
        </mxCell>
        <mxCell id="pIb1P90zdNiWHYiYZIQa-29" value="IS-04 Registration" style="edgeLabel;html=1;align=center;verticalAlign=middle;resizable=0;points=[];" parent="pIb1P90zdNiWHYiYZIQa-28" vertex="1" connectable="0">
          <mxGeometry x="0.1865" y="2" relative="1" as="geometry">
            <mxPoint x="50" y="-2" as="offset" />
          </mxGeometry>
        </mxCell>
        <mxCell id="pIb1P90zdNiWHYiYZIQa-30" value="" style="curved=1;endArrow=classic;html=1;rounded=0;exitX=0.32;exitY=1.031;exitDx=0;exitDy=0;exitPerimeter=0;entryX=-0.043;entryY=0.528;entryDx=0;entryDy=0;entryPerimeter=0;" parent="1" target="pIb1P90zdNiWHYiYZIQa-11" edge="1">
          <mxGeometry width="50" height="50" relative="1" as="geometry">
            <mxPoint x="213.20000000000005" y="212.78999999999985" as="sourcePoint" />
            <mxPoint x="230" y="280" as="targetPoint" />
            <Array as="points">
              <mxPoint x="200" y="310" />
            </Array>
          </mxGeometry>
        </mxCell>
        <mxCell id="pIb1P90zdNiWHYiYZIQa-31" value="IS-05 Connection" style="edgeLabel;html=1;align=center;verticalAlign=middle;resizable=0;points=[];" parent="pIb1P90zdNiWHYiYZIQa-30" vertex="1" connectable="0">
          <mxGeometry x="0.3193" y="19" relative="1" as="geometry">
            <mxPoint as="offset" />
          </mxGeometry>
        </mxCell>
        <mxCell id="pIb1P90zdNiWHYiYZIQa-32" value="" style="curved=1;endArrow=classic;html=1;rounded=0;exitX=0.292;exitY=1.054;exitDx=0;exitDy=0;exitPerimeter=0;entryX=-0.05;entryY=0.432;entryDx=0;entryDy=0;entryPerimeter=0;" parent="1" target="pIb1P90zdNiWHYiYZIQa-12" edge="1">
          <mxGeometry width="50" height="50" relative="1" as="geometry">
            <mxPoint x="191.92000000000007" y="214.8599999999999" as="sourcePoint" />
            <mxPoint x="246" y="330" as="targetPoint" />
            <Array as="points">
              <mxPoint x="140" y="420" />
            </Array>
          </mxGeometry>
        </mxCell>
        <mxCell id="pIb1P90zdNiWHYiYZIQa-33" value="IS-05 Connection" style="edgeLabel;html=1;align=center;verticalAlign=middle;resizable=0;points=[];" parent="pIb1P90zdNiWHYiYZIQa-32" vertex="1" connectable="0">
          <mxGeometry x="0.3193" y="19" relative="1" as="geometry">
            <mxPoint x="26" as="offset" />
          </mxGeometry>
        </mxCell>
        <mxCell id="pIb1P90zdNiWHYiYZIQa-34" value="NDI" style="html=1;shadow=0;dashed=0;align=center;verticalAlign=middle;shape=mxgraph.arrows2.arrow;dy=0.5;dx=19;flipH=1;notch=0;fontSize=8;" parent="1" vertex="1">
          <mxGeometry x="520" y="310" width="40" height="20" as="geometry" />
        </mxCell>
        <mxCell id="pIb1P90zdNiWHYiYZIQa-38" value="NDI" style="html=1;shadow=0;dashed=0;align=center;verticalAlign=middle;shape=mxgraph.arrows2.arrow;dy=0.54;dx=19.97;notch=0;fontSize=8;" parent="1" vertex="1">
          <mxGeometry x="400" y="330" width="40" height="20" as="geometry" />
        </mxCell>
        <mxCell id="pIb1P90zdNiWHYiYZIQa-40" value="NDI" style="html=1;shadow=0;dashed=0;align=center;verticalAlign=middle;shape=mxgraph.arrows2.arrow;dy=0.54;dx=19.97;notch=0;fontSize=8;" parent="1" vertex="1">
          <mxGeometry x="520" y="480" width="40" height="20" as="geometry" />
        </mxCell>
        <mxCell id="pIb1P90zdNiWHYiYZIQa-41" value="" style="endArrow=classic;startArrow=classic;html=1;rounded=0;entryX=0.5;entryY=1;entryDx=0;entryDy=0;" parent="1" source="pIb1P90zdNiWHYiYZIQa-10" target="pIb1P90zdNiWHYiYZIQa-9" edge="1">
          <mxGeometry width="50" height="50" relative="1" as="geometry">
            <mxPoint x="670" y="430" as="sourcePoint" />
            <mxPoint x="775" y="205" as="targetPoint" />
          </mxGeometry>
        </mxCell>
        <mxCell id="pIb1P90zdNiWHYiYZIQa-42" value="NDI Discovery" style="edgeLabel;html=1;align=center;verticalAlign=middle;resizable=0;points=[];" parent="pIb1P90zdNiWHYiYZIQa-41" vertex="1" connectable="0">
          <mxGeometry x="-0.1653" relative="1" as="geometry">
            <mxPoint y="-3" as="offset" />
          </mxGeometry>
        </mxCell>
        <mxCell id="pIb1P90zdNiWHYiYZIQa-43" value="NDI" style="html=1;shadow=0;dashed=0;align=center;verticalAlign=middle;shape=mxgraph.arrows2.arrow;dy=0.5;dx=19;flipH=1;notch=0;fontSize=8;" parent="1" vertex="1">
          <mxGeometry x="400" y="290" width="40" height="20" as="geometry" />
        </mxCell>
        <mxCell id="pIb1P90zdNiWHYiYZIQa-44" value="NDI" style="html=1;shadow=0;dashed=0;align=center;verticalAlign=middle;shape=mxgraph.arrows2.arrow;dy=0.5;dx=19;flipH=1;notch=0;fontSize=8;" parent="1" vertex="1">
          <mxGeometry x="400" y="480" width="40" height="20" as="geometry" />
        </mxCell>
        <mxCell id="pIb1P90zdNiWHYiYZIQa-45" value="" style="curved=1;endArrow=classic;html=1;rounded=0;entryX=0;entryY=0.5;entryDx=0;entryDy=0;entryPerimeter=0;exitX=1;exitY=0.5;exitDx=0;exitDy=0;exitPerimeter=0;dashed=1;dashPattern=1 2;" parent="1" source="pIb1P90zdNiWHYiYZIQa-34" target="pIb1P90zdNiWHYiYZIQa-40" edge="1">
          <mxGeometry width="50" height="50" relative="1" as="geometry">
            <mxPoint x="510" y="360.79" as="sourcePoint" />
            <mxPoint x="526" y="480" as="targetPoint" />
            <Array as="points">
              <mxPoint x="480" y="350" />
              <mxPoint x="420" y="400" />
              <mxPoint x="480" y="460" />
            </Array>
          </mxGeometry>
        </mxCell>
        <mxCell id="pIb1P90zdNiWHYiYZIQa-47" value="" style="endArrow=classic;html=1;rounded=0;entryX=0;entryY=0.5;entryDx=0;entryDy=0;startArrow=none;startFill=0;dashed=1;dashPattern=8 8;entryPerimeter=0;" parent="1" edge="1" target="pIb1P90zdNiWHYiYZIQa-43">
          <mxGeometry width="50" height="50" relative="1" as="geometry">
            <mxPoint x="520" y="320" as="sourcePoint" />
            <mxPoint x="440" y="340" as="targetPoint" />
          </mxGeometry>
        </mxCell>
        <mxCell id="pIb1P90zdNiWHYiYZIQa-49" value="" style="curved=1;endArrow=classic;html=1;rounded=0;entryX=0;entryY=0.5;entryDx=0;entryDy=0;entryPerimeter=0;exitX=1.08;exitY=0.579;exitDx=0;exitDy=0;exitPerimeter=0;dashed=1;dashPattern=8 8;" parent="1" source="pIb1P90zdNiWHYiYZIQa-38" target="pIb1P90zdNiWHYiYZIQa-44" edge="1">
          <mxGeometry width="50" height="50" relative="1" as="geometry">
            <mxPoint x="470" y="335" as="sourcePoint" />
            <mxPoint x="470" y="490" as="targetPoint" />
            <Array as="points">
              <mxPoint x="470" y="350" />
              <mxPoint x="500" y="380" />
              <mxPoint x="500" y="420" />
              <mxPoint x="480" y="460" />
            </Array>
          </mxGeometry>
        </mxCell>
        <mxCell id="pIb1P90zdNiWHYiYZIQa-50" value="NMOS NDI Flow" style="text;strokeColor=none;align=left;fillColor=none;html=1;verticalAlign=middle;whiteSpace=wrap;rounded=0;" parent="1" vertex="1">
          <mxGeometry x="20" y="592" width="130" height="30" as="geometry" />
        </mxCell>
        <mxCell id="pIb1P90zdNiWHYiYZIQa-51" value="" style="endArrow=classic;startArrow=none;html=1;rounded=0;startFill=0;dashed=1;dashPattern=8 8;" parent="1" edge="1">
          <mxGeometry width="50" height="50" relative="1" as="geometry">
            <mxPoint x="129" y="606.83" as="sourcePoint" />
            <mxPoint x="219" y="606.83" as="targetPoint" />
          </mxGeometry>
        </mxCell>
        <mxCell id="pIb1P90zdNiWHYiYZIQa-52" value="Control API" style="text;strokeColor=none;align=left;fillColor=none;html=1;verticalAlign=middle;whiteSpace=wrap;rounded=0;" parent="1" vertex="1">
          <mxGeometry x="20" y="614" width="130" height="30" as="geometry" />
        </mxCell>
        <mxCell id="pIb1P90zdNiWHYiYZIQa-53" value="" style="endArrow=classic;startArrow=none;html=1;rounded=0;startFill=0;" parent="1" edge="1">
          <mxGeometry width="50" height="50" relative="1" as="geometry">
            <mxPoint x="130" y="628.76" as="sourcePoint" />
            <mxPoint x="220" y="628.76" as="targetPoint" />
          </mxGeometry>
        </mxCell>
        <mxCell id="pIb1P90zdNiWHYiYZIQa-55" value="" style="endArrow=classic;html=1;rounded=0;entryX=1;entryY=0.5;entryDx=0;entryDy=0;startArrow=none;startFill=0;exitX=-0.016;exitY=0.804;exitDx=0;exitDy=0;exitPerimeter=0;" parent="1" edge="1">
          <mxGeometry width="50" height="50" relative="1" as="geometry">
            <mxPoint x="298" y="499.42999999999995" as="sourcePoint" />
            <mxPoint x="120" y="499.42999999999995" as="targetPoint" />
          </mxGeometry>
        </mxCell>
        <mxCell id="pIb1P90zdNiWHYiYZIQa-56" value="IS-04 Registration" style="edgeLabel;html=1;align=center;verticalAlign=middle;resizable=0;points=[];" parent="pIb1P90zdNiWHYiYZIQa-55" vertex="1" connectable="0">
          <mxGeometry x="0.1865" y="2" relative="1" as="geometry">
            <mxPoint x="38" y="-3" as="offset" />
          </mxGeometry>
        </mxCell>
        <mxCell id="NoBaqFFP2ZB5Eg4ciPcF-1" value="" style="endArrow=classic;startArrow=classic;html=1;rounded=0;exitX=0;exitY=0;exitDx=0;exitDy=0;entryX=0.93;entryY=1;entryDx=0;entryDy=0;entryPerimeter=0;" edge="1" parent="1" source="pIb1P90zdNiWHYiYZIQa-10">
          <mxGeometry width="50" height="50" relative="1" as="geometry">
            <mxPoint x="567" y="440" as="sourcePoint" />
            <mxPoint x="400" y="360" as="targetPoint" />
          </mxGeometry>
        </mxCell>
        <mxCell id="NoBaqFFP2ZB5Eg4ciPcF-2" value="NDI Discovery" style="edgeLabel;html=1;align=center;verticalAlign=middle;resizable=0;points=[];" vertex="1" connectable="0" parent="NoBaqFFP2ZB5Eg4ciPcF-1">
          <mxGeometry x="-0.1653" relative="1" as="geometry">
            <mxPoint x="43" y="13" as="offset" />
          </mxGeometry>
        </mxCell>
        <mxCell id="NoBaqFFP2ZB5Eg4ciPcF-5" value="" style="rounded=0;whiteSpace=wrap;html=1;strokeColor=none;fillColor=none;" vertex="1" parent="1">
          <mxGeometry x="10" y="100" width="820" height="10" as="geometry" />
        </mxCell>
        <mxCell id="NoBaqFFP2ZB5Eg4ciPcF-6" value="" style="curved=1;endArrow=classic;html=1;rounded=0;entryX=0;entryY=0.5;entryDx=0;entryDy=0;entryPerimeter=0;dashed=1;dashPattern=1 2;" edge="1" parent="1" target="NoBaqFFP2ZB5Eg4ciPcF-7">
          <mxGeometry width="50" height="50" relative="1" as="geometry">
            <mxPoint x="440" y="340" as="sourcePoint" />
            <mxPoint x="440" y="488" as="targetPoint" />
            <Array as="points">
              <mxPoint x="470" y="360" />
              <mxPoint x="480" y="370" />
              <mxPoint x="490" y="390" />
              <mxPoint x="480" y="410" />
              <mxPoint x="480" y="458" />
            </Array>
          </mxGeometry>
        </mxCell>
        <mxCell id="NoBaqFFP2ZB5Eg4ciPcF-7" value="NDI" style="html=1;shadow=0;dashed=0;align=center;verticalAlign=middle;shape=mxgraph.arrows2.arrow;dy=0.54;dx=19.97;notch=0;fontSize=8;" vertex="1" parent="1">
          <mxGeometry x="520" y="450" width="40" height="20" as="geometry" />
        </mxCell>
      </root>
    </mxGraphModel>
  </diagram>
</mxfile>
